<svg width="387" height="80" viewBox="0 0 387 80" fill="none" xmlns="http://www.w3.org/2000/svg">
<path d="M95.25 9.8125C95.25 9.14583 95.5417 8.60417 96.125 8.1875C96.6667 7.77083 97.3125 7.5625 98.0625 7.5625C98.8542 7.52083 99.5209 7.66667 100.063 8C100.646 8.41667 100.979 9.02083 101.063 9.8125C101.063 11.6875 101.083 13.2708 101.125 14.5625C101.125 16.3542 101.125 17.7083 101.125 18.625H114.063C115.729 18.625 117.083 19.0625 118.125 19.9375C119.25 20.8542 119.792 22.125 119.75 23.75C119.75 24.7083 119.625 26.6875 119.375 29.6875C119.208 32.3125 118.979 35.4792 118.688 39.1875C118.063 43.4375 117.25 46.3958 116.25 48.0625C114.875 50.4375 112.625 51.625 109.5 51.625L103.563 51.5625C102.646 51.5625 101.917 51.2708 101.375 50.6875C100.917 50.1875 100.667 49.5625 100.625 48.8125C100.625 48.0625 100.854 47.4375 101.313 46.9375C101.813 46.3958 102.5 46.125 103.375 46.125H108.938C109.938 46.125 110.688 45.8542 111.188 45.3125C111.771 44.7292 112.229 43.6667 112.563 42.125C112.854 40.6667 113.125 38.3958 113.375 35.3125C113.5 33.3125 113.75 29.4583 114.125 23.75H100.813C100.188 28.4583 98.5834 33.0833 96 37.625C92.7084 43.5 88.3959 48 83.0625 51.125C82.3125 51.5417 81.5625 51.6458 80.8125 51.4375C80.1459 51.2292 79.6042 50.7917 79.1875 50.125C78.8125 49.4583 78.7084 48.7917 78.875 48.125C79.0417 47.3333 79.5625 46.7083 80.4375 46.25C83.5209 44.3333 86.3334 41.8333 88.875 38.75C92.7084 34.0417 94.7917 29.0417 95.125 23.75H81.9375C81.2709 23.7083 80.75 23.4167 80.375 22.875C80.0834 22.375 79.9375 21.7917 79.9375 21.125C79.9375 20.4167 80.125 19.8333 80.5 19.375C80.875 18.8333 81.3959 18.5833 82.0625 18.625H95.5L95.25 9.8125Z" fill="white"/>
<path d="M151.75 7.25H175.125C176.083 7.25 176.854 7.52083 177.438 8.0625C177.938 8.60417 178.188 9.25 178.188 10C178.188 10.7083 177.938 11.3333 177.438 11.875C176.854 12.4583 176.083 12.75 175.125 12.75H151.688C150.813 12.75 150.104 12.4583 149.563 11.875C149.063 11.3333 148.813 10.7083 148.813 10C148.771 9.25 149 8.60417 149.5 8.0625C150.042 7.52083 150.792 7.25 151.75 7.25ZM146.625 20.5625H177C179.125 20.5625 180.583 21.1458 181.375 22.3125C182.167 23.5208 182.125 25.125 181.25 27.125C178.458 33.375 174.958 38.75 170.75 43.25C167.167 47 163.375 49.8333 159.375 51.75C158.542 52.125 157.75 52.1667 157 51.875C156.292 51.625 155.771 51.1875 155.438 50.5625C155.063 49.8958 154.958 49.25 155.125 48.625C155.333 47.875 155.875 47.3125 156.75 46.9375C160.792 45.0208 164.417 42.3125 167.625 38.8125C170.875 35.2708 173.646 31 175.938 26H146.625C145.792 26 145.146 25.7083 144.688 25.125C144.229 24.625 144 24 144 23.25C144 22.5 144.229 21.875 144.688 21.375C145.146 20.8333 145.792 20.5625 146.625 20.5625Z" fill="white"/>
<path d="M223.813 7.9375C224.271 7.10417 224.896 6.625 225.688 6.5C226.396 6.33333 227.104 6.45833 227.813 6.875C228.479 7.25 228.958 7.75 229.25 8.375C229.542 9.08333 229.521 9.79167 229.188 10.5L229 10.6875C228.708 11.2292 228.438 11.6875 228.188 12.0625C227.771 12.6875 227.292 13.3333 226.75 14H240.813C242.688 14 244.083 14.5 245 15.5C246.042 16.5833 246.208 18.0833 245.5 20C244.417 22.6667 243.104 25.4375 241.563 28.3125C240.021 31.1458 238.604 33.4167 237.313 35.125C238.188 35.875 239.188 36.8125 240.313 37.9375C241.479 39.1042 242.417 40.0833 243.125 40.875C243.792 41.5833 244.104 42.3542 244.063 43.1875C244.063 43.9375 243.792 44.5833 243.25 45.125C242.667 45.6667 242.021 45.9375 241.313 45.9375C240.479 45.9792 239.729 45.6875 239.063 45.0625L238.5 44.4375C237.292 43.2292 236.396 42.3333 235.813 41.75C234.813 40.7917 233.896 39.9792 233.063 39.3125C230.396 42.1458 227.5 44.8333 224.375 47.375C221 50.1667 218.063 52.1667 215.563 53.375C214.646 53.875 213.771 53.9792 212.938 53.6875C212.229 53.4375 211.688 52.9375 211.313 52.1875C210.938 51.4375 210.875 50.7083 211.125 50C211.417 49.1667 212.042 48.5833 213 48.25C215.917 46.875 218.917 44.9583 222 42.5C224.917 40.125 227.354 37.7083 229.313 35.25C227.771 33.5417 226.604 32.3125 225.813 31.5625C224.688 30.4792 223.458 29.4167 222.125 28.375C221.458 27.7917 221.125 27.1667 221.125 26.5C221.167 25.875 221.438 25.3125 221.938 24.8125C222.438 24.3542 223.021 24.0833 223.688 24C224.438 23.9167 225.104 24.125 225.688 24.625C226.771 25.4583 227.813 26.3333 228.813 27.25C229.438 27.8333 230.458 28.7708 231.875 30.0625L233.25 31.375L233.438 31C234.979 28.6667 236.125 26.8125 236.875 25.4375C238.167 23.1042 239.104 20.9792 239.688 19.0625H223C222 20.4792 220.729 21.9375 219.188 23.4375C217.438 25.2292 215.5 26.8542 213.375 28.3125C212.542 28.8542 211.688 29.0833 210.813 29C210.021 28.9167 209.354 28.625 208.813 28.125C208.313 27.5833 208.063 27 208.063 26.375C208.104 25.6667 208.521 25.0625 209.313 24.5625C212.271 22.2708 215.125 19.5417 217.875 16.375C220.458 13.375 222.438 10.5625 223.813 7.9375ZM248.188 7.0625C248.938 7.60417 249.708 8.25 250.5 9C251.25 9.66667 251.896 10.3333 252.438 11C252.896 11.5 253.083 12.0625 253 12.6875C252.917 13.3125 252.646 13.8333 252.188 14.25C251.729 14.7083 251.208 14.9375 250.625 14.9375C249.958 14.9792 249.375 14.7083 248.875 14.125C248.458 13.5833 247.938 13.0417 247.313 12.5C246.771 11.9583 246.063 11.3542 245.188 10.6875C244.646 10.2292 244.375 9.70833 244.375 9.125C244.375 8.58333 244.583 8.0625 245 7.5625C245.375 7.10417 245.854 6.8125 246.438 6.6875C247.063 6.5625 247.646 6.6875 248.188 7.0625ZM253.625 0.8125C254.333 1.27083 255.125 1.91667 256 2.75C256.542 3.25 257.208 3.91667 258 4.75C258.417 5.25 258.583 5.8125 258.5 6.4375C258.417 7.0625 258.125 7.58333 257.625 8C257.167 8.45833 256.646 8.6875 256.063 8.6875C255.396 8.6875 254.813 8.39583 254.313 7.8125C253.896 7.3125 253.375 6.77083 252.75 6.1875C252.208 5.6875 251.521 5.10417 250.688 4.4375C250.146 3.97917 249.875 3.45833 249.875 2.875C249.833 2.33333 250.021 1.8125 250.438 1.3125C250.813 0.854167 251.292 0.5625 251.875 0.4375C252.5 0.3125 253.083 0.4375 253.625 0.8125Z" fill="white"/>
<path d="M280.938 11.375H304.5C306.25 11.375 307.646 11.8333 308.688 12.75C309.729 13.6667 310.25 14.8958 310.25 16.4375V45.625C310.25 46.25 309.938 46.75 309.313 47.125C308.729 47.5 308.042 47.6875 307.25 47.6875C306.458 47.6875 305.771 47.5 305.188 47.125C304.604 46.75 304.313 46.25 304.313 45.625V44.25H281.313V45.625C281.313 46.25 281 46.75 280.375 47.125C279.833 47.5 279.167 47.6875 278.375 47.6875C277.583 47.6875 276.917 47.5 276.375 47.125C275.792 46.75 275.5 46.25 275.5 45.625V16.3125C275.5 14.8125 275.958 13.6042 276.875 12.6875C277.875 11.8125 279.229 11.375 280.938 11.375ZM281.375 16.6875V38.875H304.313V16.6875H281.375Z" fill="white"/>
<path d="M352.813 8.0625C353.146 7.39583 353.708 7 354.5 6.875C355.208 6.75 355.938 6.83333 356.688 7.125C357.438 7.45833 357.979 7.9375 358.313 8.5625C358.646 9.22917 358.625 9.95833 358.25 10.75C357.958 11.2083 357.625 11.7083 357.25 12.25C356.917 12.75 356.417 13.4375 355.75 14.3125H368.438C370.313 14.3125 371.688 14.7917 372.563 15.75C373.438 16.75 373.542 18.0833 372.875 19.75C370.208 26.9583 365.229 34.125 357.938 41.25C351.938 47.125 346.458 51.2292 341.5 53.5625C340.625 53.8958 339.833 53.8958 339.125 53.5625C338.458 53.2708 337.979 52.7708 337.688 52.0625C337.354 51.3542 337.313 50.6667 337.563 50C337.813 49.25 338.354 48.6875 339.188 48.3125C344.813 45.8125 350.521 41.4167 356.313 35.125C361.896 29.0417 365.271 23.75 366.438 19.25H351.75C350.208 21.2917 348.438 23.3542 346.438 25.4375C344.229 27.6875 342.375 29.2708 340.875 30.1875C340.125 30.6458 339.354 30.7917 338.563 30.625C337.813 30.5 337.208 30.1458 336.75 29.5625C336.25 29.0208 336.083 28.4167 336.25 27.75C336.375 27 336.896 26.3542 337.813 25.8125C340.396 24.1458 343.354 21.2292 346.688 17.0625C349.563 13.4792 351.604 10.4792 352.813 8.0625ZM376.438 8C377.229 8.54167 378.021 9.16667 378.813 9.875C379.563 10.5833 380.208 11.2708 380.75 11.9375C381.208 12.4375 381.396 13 381.313 13.625C381.229 14.2083 380.958 14.7292 380.5 15.1875C380 15.6042 379.479 15.8333 378.938 15.875C378.271 15.875 377.688 15.5833 377.188 15C376.729 14.5 376.208 13.9583 375.625 13.375C375.042 12.875 374.333 12.2917 373.5 11.625C372.958 11.1667 372.688 10.6458 372.688 10.0625C372.646 9.52083 372.833 9 373.25 8.5C373.625 8.04167 374.104 7.75 374.688 7.625C375.313 7.5 375.896 7.625 376.438 8ZM381.938 1.75C382.688 2.25 383.458 2.875 384.25 3.625C385 4.29167 385.667 4.97917 386.25 5.6875C386.667 6.1875 386.833 6.75 386.75 7.375C386.667 7.95833 386.396 8.47917 385.938 8.9375C385.438 9.35417 384.917 9.5625 384.375 9.5625C383.708 9.5625 383.125 9.27083 382.625 8.6875C382.167 8.1875 381.646 7.66667 381.063 7.125C380.479 6.58333 379.792 6 379 5.375C378.458 4.91667 378.188 4.39583 378.188 3.8125C378.146 3.27083 378.333 2.75 378.75 2.25C379.125 1.79167 379.604 1.5 380.188 1.375C380.813 1.25 381.396 1.375 381.938 1.75Z" fill="white"/>
<rect x="55" y="5" width="75" height="14" rx="2" transform="rotate(90 55 5)" fill="white"/>
<rect x="35" y="30" width="50" height="15" rx="2" transform="rotate(90 35 30)" fill="white"/>
<rect x="14" y="55" width="25" height="14" rx="2" transform="rotate(90 14 55)" fill="white"/>
<path d="M125.125 67.5938H126.531L128.266 72.5156C128.526 73.2448 128.76 73.9531 128.969 74.6406H129.031C129.188 74.1302 129.417 73.4219 129.719 72.5156L131.375 67.5938H132.75L129.125 77.4062C128.812 78.2396 128.448 78.8229 128.031 79.1562C127.625 79.5 127.125 79.6719 126.531 79.6719H126.062V78.6719H126.344C126.74 78.6719 127.073 78.5573 127.344 78.3281C127.625 78.099 127.875 77.6875 128.094 77.0938L128.406 76.1094L125.125 67.5938Z" fill="white"/>
<path d="M136.196 71.7969C136.196 72.8594 136.44 73.7031 136.93 74.3281C137.42 74.9531 138.029 75.2656 138.758 75.2656C139.477 75.2656 140.081 74.9531 140.571 74.3281C141.071 73.7031 141.321 72.8594 141.321 71.7969C141.321 70.7135 141.071 69.8646 140.571 69.25C140.071 68.6354 139.466 68.3281 138.758 68.3281C138.039 68.3281 137.43 68.6354 136.93 69.25C136.44 69.8646 136.196 70.7135 136.196 71.7969ZM134.977 71.7969C134.977 70.5156 135.305 69.4479 135.961 68.5938C136.628 67.7396 137.56 67.3125 138.758 67.3125C139.946 67.3125 140.873 67.7396 141.539 68.5938C142.206 69.4479 142.539 70.5156 142.539 71.7969C142.539 72.3385 142.466 72.8646 142.321 73.375C142.185 73.8854 141.972 74.3646 141.68 74.8125C141.399 75.25 141.003 75.6042 140.493 75.875C139.993 76.1458 139.414 76.2812 138.758 76.2812C138.112 76.2812 137.534 76.151 137.024 75.8906C136.524 75.6198 136.128 75.2656 135.836 74.8281C135.555 74.3802 135.341 73.901 135.196 73.3906C135.05 72.8802 134.977 72.349 134.977 71.7969Z" fill="white"/>
<path d="M146.063 73.0469V67.5938H147.282V72.7969C147.282 74.4427 147.886 75.2656 149.094 75.2656C149.834 75.2656 150.396 74.9792 150.782 74.4062C151.178 73.8333 151.376 73.1562 151.376 72.375V67.5938H152.563V76H151.407V74.6406C151.324 74.9844 151.063 75.3438 150.626 75.7188C150.199 76.0938 149.594 76.2812 148.813 76.2812C148.011 76.2812 147.35 76.0104 146.829 75.4688C146.318 74.9167 146.063 74.1094 146.063 73.0469Z" fill="white"/>
<path d="M156.759 76V67.5938H157.915V68.8125C158.082 68.4375 158.358 68.0938 158.743 67.7812C159.129 67.4688 159.623 67.3125 160.228 67.3125C160.675 67.3125 161.071 67.3854 161.415 67.5312V68.625C161.04 68.4792 160.644 68.4062 160.228 68.4062C159.519 68.4062 158.967 68.6719 158.571 69.2031C158.175 69.7344 157.978 70.4375 157.978 71.3125V76H156.759Z" fill="white"/>
<path d="M169.978 76V63.8594H171.166V69.0938C171.311 68.6562 171.619 68.25 172.088 67.875C172.556 67.5 173.103 67.3125 173.728 67.3125C174.77 67.3125 175.619 67.7135 176.275 68.5156C176.931 69.3073 177.259 70.3958 177.259 71.7812C177.259 72.5521 177.15 73.2396 176.931 73.8438C176.723 74.4375 176.442 74.9062 176.088 75.25C175.744 75.5938 175.369 75.849 174.963 76.0156C174.567 76.1927 174.155 76.2812 173.728 76.2812C173.134 76.2812 172.608 76.1094 172.15 75.7656C171.692 75.4115 171.364 74.9896 171.166 74.5V76H169.978ZM171.134 71.7812C171.134 72.8438 171.369 73.6927 171.838 74.3281C172.317 74.9531 172.895 75.2656 173.572 75.2656C174.291 75.2656 174.879 74.9583 175.338 74.3438C175.806 73.7188 176.041 72.8646 176.041 71.7812C176.041 70.7292 175.811 69.8906 175.353 69.2656C174.895 68.6406 174.301 68.3281 173.572 68.3281C172.895 68.3281 172.317 68.6406 171.838 69.2656C171.369 69.8906 171.134 70.7292 171.134 71.7812Z" fill="white"/>
<path d="M181.533 71.7969C181.533 72.8594 181.778 73.7031 182.267 74.3281C182.757 74.9531 183.366 75.2656 184.096 75.2656C184.814 75.2656 185.419 74.9531 185.908 74.3281C186.408 73.7031 186.658 72.8594 186.658 71.7969C186.658 70.7135 186.408 69.8646 185.908 69.25C185.408 68.6354 184.804 68.3281 184.096 68.3281C183.377 68.3281 182.767 68.6354 182.267 69.25C181.778 69.8646 181.533 70.7135 181.533 71.7969ZM180.314 71.7969C180.314 70.5156 180.642 69.4479 181.299 68.5938C181.965 67.7396 182.898 67.3125 184.096 67.3125C185.283 67.3125 186.21 67.7396 186.877 68.5938C187.544 69.4479 187.877 70.5156 187.877 71.7969C187.877 72.3385 187.804 72.8646 187.658 73.375C187.523 73.8854 187.309 74.3646 187.017 74.8125C186.736 75.25 186.34 75.6042 185.83 75.875C185.33 76.1458 184.752 76.2812 184.096 76.2812C183.45 76.2812 182.872 76.151 182.361 75.8906C181.861 75.6198 181.465 75.2656 181.174 74.8281C180.892 74.3802 180.679 73.901 180.533 73.3906C180.387 72.8802 180.314 72.349 180.314 71.7969Z" fill="white"/>
<path d="M190.932 71.7812C190.932 70.3958 191.265 69.3073 191.932 68.5156C192.599 67.7135 193.442 67.3125 194.463 67.3125C195.078 67.3125 195.609 67.4896 196.057 67.8438C196.515 68.1979 196.838 68.6042 197.026 69.0625V63.8594H198.213V76H197.057V74.4844C196.838 75.0052 196.5 75.4375 196.041 75.7812C195.593 76.1146 195.067 76.2812 194.463 76.2812C194.036 76.2812 193.619 76.1927 193.213 76.0156C192.817 75.849 192.442 75.599 192.088 75.2656C191.744 74.9219 191.463 74.4531 191.244 73.8594C191.036 73.2552 190.932 72.5625 190.932 71.7812ZM192.151 71.7812C192.151 72.8333 192.38 73.6771 192.838 74.3125C193.296 74.9479 193.89 75.2656 194.619 75.2656C195.296 75.2656 195.869 74.9531 196.338 74.3281C196.817 73.6927 197.057 72.8438 197.057 71.7812C197.057 70.7292 196.817 69.8906 196.338 69.2656C195.869 68.6406 195.296 68.3281 194.619 68.3281C193.88 68.3281 193.281 68.6458 192.823 69.2812C192.375 69.9062 192.151 70.7396 192.151 71.7812Z" fill="white"/>
<path d="M201.362 67.5938H202.768L204.503 72.5156C204.763 73.2448 204.997 73.9531 205.206 74.6406H205.268C205.424 74.1302 205.654 73.4219 205.956 72.5156L207.612 67.5938H208.987L205.362 77.4062C205.049 78.2396 204.685 78.8229 204.268 79.1562C203.862 79.5 203.362 79.6719 202.768 79.6719H202.299V78.6719H202.581C202.976 78.6719 203.31 78.5573 203.581 78.3281C203.862 78.099 204.112 77.6875 204.331 77.0938L204.643 76.1094L201.362 67.5938Z" fill="white"/>
<path d="M218.566 73.0469C218.566 73.724 218.784 74.2604 219.222 74.6562C219.67 75.0521 220.243 75.25 220.941 75.25C221.889 75.25 222.748 74.7865 223.519 73.8594L220.628 69.9375C220.014 70.3646 219.514 70.8229 219.128 71.3125C218.753 71.8021 218.566 72.3802 218.566 73.0469ZM217.316 73.0625C217.316 71.5208 218.206 70.1875 219.988 69.0625C219.956 69.0104 219.904 68.9375 219.831 68.8438C219.571 68.4792 219.383 68.2083 219.269 68.0312C219.165 67.8542 219.066 67.6354 218.972 67.375C218.878 67.1146 218.831 66.8385 218.831 66.5469C218.831 65.8802 219.081 65.3125 219.581 64.8438C220.092 64.375 220.8 64.1406 221.706 64.1406C223.092 64.1406 224.107 64.7969 224.753 66.1094L223.8 66.5312C223.613 66.1667 223.331 65.849 222.956 65.5781C222.592 65.2969 222.201 65.1562 221.784 65.1562C221.253 65.1562 220.836 65.2969 220.534 65.5781C220.232 65.849 220.081 66.1875 220.081 66.5938C220.081 67.0208 220.389 67.6927 221.003 68.6094C221.618 69.526 222.665 70.9479 224.144 72.875C224.467 72.2292 224.706 71.4688 224.863 70.5938L225.988 70.7969C225.81 71.9219 225.456 72.9427 224.925 73.8594L226.566 76H225.128L224.206 74.7969C223.29 75.7865 222.185 76.2812 220.894 76.2812C219.758 76.2812 218.878 75.974 218.253 75.3594C217.628 74.7448 217.316 73.9792 217.316 73.0625Z" fill="white"/>
<path d="M234.144 68.6094V67.5938H235.613V64.9062H236.832V67.5938H239.051V68.6094H236.832V73.5312C236.832 74.0521 236.931 74.4219 237.129 74.6406C237.327 74.8594 237.644 74.9688 238.082 74.9688H239.051V76H237.926C236.384 76 235.613 75.2135 235.613 73.6406V68.6094H234.144Z" fill="white"/>
<path d="M242.465 76V67.5938H243.621V68.8125C243.788 68.4375 244.064 68.0938 244.449 67.7812C244.835 67.4688 245.33 67.3125 245.934 67.3125C246.382 67.3125 246.777 67.3854 247.121 67.5312V68.625C246.746 68.4792 246.35 68.4062 245.934 68.4062C245.225 68.4062 244.673 68.6719 244.277 69.2031C243.882 69.7344 243.684 70.4375 243.684 71.3125V76H242.465Z" fill="white"/>
<path d="M250.551 73.8438C250.551 74.2396 250.718 74.5781 251.051 74.8594C251.385 75.1302 251.843 75.2656 252.426 75.2656C253.166 75.2656 253.796 75.026 254.317 74.5469C254.848 74.0677 255.114 73.4583 255.114 72.7188V71.5469C254.655 71.6615 253.926 71.7969 252.926 71.9531C252.114 72.099 251.515 72.3229 251.129 72.625C250.744 72.9271 250.551 73.3333 250.551 73.8438ZM249.332 73.9375C249.332 72.375 250.541 71.4062 252.957 71.0312C254.041 70.8542 254.76 70.7083 255.114 70.5938V70.1094C255.114 69.5885 254.926 69.1562 254.551 68.8125C254.176 68.4688 253.645 68.2969 252.957 68.2969C252.457 68.2969 251.973 68.4167 251.504 68.6562C251.046 68.8854 250.655 69.1979 250.332 69.5938L249.551 68.9375C249.968 68.4583 250.468 68.0677 251.051 67.7656C251.645 67.4635 252.27 67.3125 252.926 67.3125C255.176 67.3125 256.301 68.4115 256.301 70.6094V76H255.145V74.625C254.978 75.0729 254.635 75.4635 254.114 75.7969C253.593 76.1198 252.978 76.2812 252.27 76.2812C251.343 76.2812 250.619 76.0625 250.098 75.625C249.588 75.1875 249.332 74.625 249.332 73.9375Z" fill="white"/>
<path d="M260.528 65.7031V64.125H262.059V65.7031H260.528ZM260.716 76V67.5938H261.903V76H260.716Z" fill="white"/>
<path d="M266.38 76V67.5938H267.568V69.0312H267.583C267.708 68.6146 268.015 68.224 268.505 67.8594C268.995 67.4948 269.578 67.3125 270.255 67.3125C271.036 67.3125 271.677 67.5573 272.177 68.0469C272.687 68.5365 272.943 69.375 272.943 70.5625V76H271.724V70.7656C271.724 69.1406 271.14 68.3281 269.974 68.3281C269.328 68.3281 268.771 68.5885 268.302 69.1094C267.833 69.6302 267.599 70.2552 267.599 70.9844V76H266.38Z" fill="white"/>
<path d="M277.154 65.7031V64.125H278.685V65.7031H277.154ZM277.341 76V67.5938H278.529V76H277.341Z" fill="white"/>
<path d="M283.006 76V67.5938H284.193V69.0312H284.209C284.334 68.6146 284.641 68.224 285.131 67.8594C285.62 67.4948 286.204 67.3125 286.881 67.3125C287.662 67.3125 288.303 67.5573 288.803 68.0469C289.313 68.5365 289.568 69.375 289.568 70.5625V76H288.349V70.7656C288.349 69.1406 287.766 68.3281 286.599 68.3281C285.954 68.3281 285.396 68.5885 284.928 69.1094C284.459 69.6302 284.224 70.2552 284.224 70.9844V76H283.006Z" fill="white"/>
<path d="M294.311 71.6406C294.311 72.6302 294.529 73.4323 294.967 74.0469C295.404 74.651 295.977 74.9531 296.686 74.9531C297.404 74.9531 297.972 74.6615 298.389 74.0781C298.816 73.4948 299.029 72.6771 299.029 71.625C299.029 70.6042 298.811 69.8021 298.373 69.2188C297.946 68.625 297.394 68.3281 296.717 68.3281C295.988 68.3281 295.404 68.6406 294.967 69.2656C294.529 69.8802 294.311 70.6719 294.311 71.6406ZM293.092 71.6562C293.092 70.3542 293.415 69.3073 294.061 68.5156C294.706 67.7135 295.54 67.3125 296.561 67.3125C297.206 67.3125 297.732 67.4792 298.139 67.8125C298.555 68.1458 298.852 68.5312 299.029 68.9688V67.5938H300.217V75.0156C300.217 76.6094 299.93 77.7917 299.357 78.5625C298.795 79.3438 297.894 79.7344 296.654 79.7344C295.311 79.7344 294.269 79.224 293.529 78.2031L294.373 77.6562C295.019 78.3854 295.79 78.75 296.686 78.75C297.425 78.75 297.998 78.4583 298.404 77.875C298.821 77.3021 299.029 76.5312 299.029 75.5625V74.3594C298.811 74.8281 298.493 75.2135 298.076 75.5156C297.67 75.8177 297.175 75.9688 296.592 75.9688C295.529 75.9688 294.68 75.5677 294.045 74.7656C293.41 73.9531 293.092 72.9167 293.092 71.6562Z" fill="white"/>
<path d="M310.217 76V63.8594H311.405V76H310.217Z" fill="white"/>
<path d="M316.429 71.7969C316.429 72.8594 316.674 73.7031 317.163 74.3281C317.653 74.9531 318.262 75.2656 318.991 75.2656C319.71 75.2656 320.314 74.9531 320.804 74.3281C321.304 73.7031 321.554 72.8594 321.554 71.7969C321.554 70.7135 321.304 69.8646 320.804 69.25C320.304 68.6354 319.7 68.3281 318.991 68.3281C318.272 68.3281 317.663 68.6354 317.163 69.25C316.674 69.8646 316.429 70.7135 316.429 71.7969ZM315.21 71.7969C315.21 70.5156 315.538 69.4479 316.194 68.5938C316.861 67.7396 317.793 67.3125 318.991 67.3125C320.179 67.3125 321.106 67.7396 321.772 68.5938C322.439 69.4479 322.772 70.5156 322.772 71.7969C322.772 72.3385 322.7 72.8646 322.554 73.375C322.418 73.8854 322.205 74.3646 321.913 74.8125C321.632 75.25 321.236 75.6042 320.726 75.875C320.226 76.1458 319.647 76.2812 318.991 76.2812C318.345 76.2812 317.767 76.151 317.257 75.8906C316.757 75.6198 316.361 75.2656 316.069 74.8281C315.788 74.3802 315.575 73.901 315.429 73.3906C315.283 72.8802 315.21 72.349 315.21 71.7969Z" fill="white"/>
<path d="M327.046 71.6406C327.046 72.6302 327.265 73.4323 327.702 74.0469C328.14 74.651 328.713 74.9531 329.421 74.9531C330.14 74.9531 330.708 74.6615 331.124 74.0781C331.551 73.4948 331.765 72.6771 331.765 71.625C331.765 70.6042 331.546 69.8021 331.109 69.2188C330.682 68.625 330.13 68.3281 329.452 68.3281C328.723 68.3281 328.14 68.6406 327.702 69.2656C327.265 69.8802 327.046 70.6719 327.046 71.6406ZM325.827 71.6562C325.827 70.3542 326.15 69.3073 326.796 68.5156C327.442 67.7135 328.275 67.3125 329.296 67.3125C329.942 67.3125 330.468 67.4792 330.874 67.8125C331.291 68.1458 331.588 68.5312 331.765 68.9688V67.5938H332.952V75.0156C332.952 76.6094 332.666 77.7917 332.093 78.5625C331.531 79.3438 330.63 79.7344 329.39 79.7344C328.046 79.7344 327.005 79.224 326.265 78.2031L327.109 77.6562C327.755 78.3854 328.525 78.75 329.421 78.75C330.161 78.75 330.734 78.4583 331.14 77.875C331.557 77.3021 331.765 76.5312 331.765 75.5625V74.3594C331.546 74.8281 331.229 75.2135 330.812 75.5156C330.406 75.8177 329.911 75.9688 329.327 75.9688C328.265 75.9688 327.416 75.5677 326.781 74.7656C326.145 73.9531 325.827 72.9167 325.827 71.6562Z" fill="white"/>
<path fill-rule="evenodd" clip-rule="evenodd" d="M117 71H111V70H117V71Z" fill="white"/>
<path fill-rule="evenodd" clip-rule="evenodd" d="M347 71H341V70H347V71Z" fill="white"/>
</svg>
